# xmcd
#
# Track frame offsets:
#   150
#   17802
#   33333
#   49650
#   78848
#   83089
#   105132
#   117417
#   149308
#   157310
#   174538
#   196316
#   224606
#   244811
#
# Disc length: 3545 seconds
#
# Revision: 0
# Processed by: cddbd v1.5.1PL0 Copyright (c) Steve Scherf et al.
# Submitted via: GXTranscoder 2.0.1939
#
DISCID=b90dd70e
DTITLE=Champion Jack Dupree - The Blues Jubilee Album 2
DYEAR=1984
DGENRE=Blues
TTITLE0=new york city
TTITLE1=move me baby
TTITLE2=shineberger boogie
TTITLE3=thank you good
TTITLE4=happy birthday
TTITLE5=rockin´ the house
TTITLE6=one more time
TTITLE7=the blues ad lib
TTITLE8=bye bye blues
TTITLE9=mother in law
TTITLE10=georginia
TTITLE11=one scoth, one bourbon, one beer
TTITLE12=outro
TTITLE13=outro2
EXTD=
EXTT0=
EXTT1=
EXTT2=
EXTT3=
EXTT4=
EXTT5=
EXTT6=
EXTT7=
EXTT8=
EXTT9=
EXTT10=
EXTT11=
EXTT12=
EXTT13=
PLAYORDER=
